<svg width="63" height="83" viewBox="0 0 63 83" fill="none" xmlns="http://www.w3.org/2000/svg">
<path d="M46 72.1V72.6H46.0773C45.8224 75.3921 43.4554 77.6 40.6 77.6H9.9C6.87614 77.6 4.4 75.1239 4.4 72.1V22.3C4.4 19.2762 6.87614 16.8 9.9 16.8H40.5C43.5239 16.8 46 19.2762 46 22.3V72.1ZM40.5 12.9H9.9C4.72386 12.9 0.5 17.1239 0.5 22.3V72.2C0.5 77.3762 4.72386 81.6 9.9 81.6H40.5C45.6761 81.6 49.9 77.3762 49.9 72.2V22.3C49.9 17.1239 45.6761 12.9 40.5 12.9Z" fill="white" stroke="white"/>
<path d="M16.8962 9.26202L16.8964 9.26204L16.8977 9.24816C17.1723 6.41063 19.5513 4.3 22.4 4.3H53C56.0239 4.3 58.5 6.77614 58.5 9.8V59.7C58.5 62.5488 56.3894 64.9277 53.5519 65.2023L53.5519 65.2021L53.538 65.2039C52.4919 65.3346 51.6663 66.2609 51.8038 67.362L51.8051 67.3707C51.9345 68.2764 52.7123 69.1 53.7 69.1H53.7006H53.7012H53.7018H53.7024H53.7029H53.7035H53.7041H53.7047H53.7052H53.7058H53.7064H53.7069H53.7075H53.708H53.7086H53.7091H53.7097H53.7102H53.7108H53.7113H53.7119H53.7124H53.7129H53.7135H53.714H53.7145H53.7151H53.7156H53.7161H53.7166H53.7172H53.7177H53.7182H53.7187H53.7192H53.7197H53.7202H53.7207H53.7212H53.7217H53.7222H53.7227H53.7232H53.7237H53.7242H53.7247H53.7252H53.7257H53.7262H53.7267H53.7271H53.7276H53.7281H53.7286H53.7291H53.7295H53.73H53.7305H53.7309H53.7314H53.7319H53.7323H53.7328H53.7332H53.7337H53.7342H53.7346H53.7351H53.7355H53.736H53.7364H53.7369H53.7373H53.7377H53.7382H53.7386H53.7391H53.7395H53.7399H53.7404H53.7408H53.7412H53.7416H53.7421H53.7425H53.7429H53.7433H53.7438H53.7442H53.7446H53.745H53.7454H53.7458H53.7462H53.7467H53.7471H53.7475H53.7479H53.7483H53.7487H53.7491H53.7495H53.7499H53.7503H53.7507H53.7511H53.7515H53.7519H53.7522H53.7526H53.753H53.7534H53.7538H53.7542H53.7546H53.7549H53.7553H53.7557H53.7561H53.7565H53.7568H53.7572H53.7576H53.7579H53.7583H53.7587H53.7591H53.7594H53.7598H53.7601H53.7605H53.7609H53.7612H53.7616H53.762H53.7623H53.7627H53.763H53.7634H53.7637H53.7641H53.7644H53.7648H53.7651H53.7655H53.7658H53.7662H53.7665H53.7669H53.7672H53.7676H53.7679H53.7682H53.7686H53.7689H53.7693H53.7696H53.7699H53.7703H53.7706H53.7709H53.7713H53.7716H53.7719H53.7723H53.7726H53.7729H53.7732H53.7736H53.7739H53.7742H53.7745H53.7749H53.7752H53.7755H53.7758H53.7762H53.7765H53.7768H53.7771H53.7774H53.7778H53.7781H53.7784H53.7787H53.779H53.7793H53.7797H53.78H53.7803H53.7806H53.7809H53.7812H53.7815H53.7818H53.7821H53.7825H53.7828H53.7831H53.7834H53.7837H53.784H53.7843H53.7846H53.7849H53.7852H53.7855H53.7858H53.7861H53.7864H53.7867H53.787H53.7873H53.7876H53.7879H53.7882H53.7885H53.7888H53.7891H53.7894H53.7897H53.79H53.7903H53.7906H53.7909H53.7912H53.7915H53.7918H53.7921H53.7924H53.7927H53.793H53.7933H53.7936H53.7939H53.7942H53.7945H53.7948H53.7951H53.7953H53.7956H53.7959H53.7962H53.7965H53.7968H53.7971H53.7974H53.7977H53.798H53.7983H53.7986H53.7989H53.7992H53.7995H53.7997H53.8H53.8003H53.8006H53.8009H53.8012H53.8015H53.8018H53.8021H53.8024H53.8027H53.803H53.8033H53.8036H53.8039H53.8041H53.8044H53.8047H53.805H53.8053H53.8056H53.8059H53.8062H53.8065H53.8068H53.8071H53.8074H53.8077H53.808H53.8083H53.8086H53.8089H53.8092H53.8095H53.8098H53.8101H53.8104H53.8107H53.811H53.8113H53.8116H53.8119H53.8122H53.8125H53.8128H53.8131H53.8134H53.8137H53.814H53.8143H53.8146H53.8149H53.8152H53.8155H53.8158H53.8161H53.8164H53.8167H53.817H53.8173H53.8176H53.8179H53.8182H53.8186H53.8189H53.8192H53.8195H53.8198H53.8201H53.8204H53.8207H53.8211H53.8214H53.8217H53.822H53.8223H53.8226H53.823H53.8233H53.8236H53.8239H53.8242H53.8246H53.8249H53.8252H53.8255H53.8259H53.8262H53.8265H53.8268H53.8272H53.8275H53.8278H53.8282H53.8285H53.8288H53.8292H53.8295H53.8298H53.8302H53.8305H53.8308H53.8312H53.8315H53.8318H53.8322H53.8325H53.8329H53.8332H53.8336H53.8339H53.8343H53.8346H53.8349H53.8353H53.8356H53.836H53.8363H53.8367H53.8371H53.8374H53.8378H53.8381H53.8385H53.8388H53.8392H53.8396H53.8399H53.8403H53.8407H53.841H53.8414H53.8418H53.8421H53.8425H53.8429H53.8433H53.8436H53.844H53.8444H53.8448H53.8451H53.8455H53.8459H53.8463H53.8467H53.8471H53.8475H53.8478H53.8482H53.8486H53.849H53.8494H53.8498H53.8502H53.8506H53.851H53.8514H53.8518H53.8522H53.8526H53.853H53.8534H53.8538H53.8542H53.8547H53.8551H53.8555H53.8559H53.8563H53.8567H53.8572H53.8576H53.858H53.8584H53.8589H53.8593H53.8597H53.8602H53.8606H53.861H53.8615H53.8619H53.8623H53.8628H53.8632H53.8637H53.8641H53.8646H53.865H53.8655H53.8659H53.8664H53.8668H53.8673H53.8678H53.8682H53.8687H53.8691H53.8696H53.8701H53.8706H53.871H53.8715H53.872H53.8725H53.8729H53.8734H53.8739H53.8744H53.8749H53.8754H53.8759H53.8763H53.8768H53.8773H53.8778H53.8783H53.8788H53.8793H53.8799H53.8804H53.8809H53.8814H53.8819H53.8824H53.8829H53.8834H53.884H53.8845H53.885H53.8856H53.8861H53.8866H53.8871H53.8877H53.8882H53.8888H53.8893H53.8899H53.8904H53.891H53.8915H53.8921H53.8926H53.8932H53.8937H53.8943H53.8949H53.8954H53.896H53.8966H53.8971H53.8977H53.8983H53.8989H53.8995H53.9H53.9277L53.9553 69.0969C58.7076 68.5689 62.3 64.5557 62.3 59.8V9.9C62.3 4.72386 58.0762 0.5 52.9 0.5H22.3C17.453 0.5 13.4304 4.0846 13.0028 8.84737C12.871 9.94435 13.6949 10.8657 14.738 10.9961C15.8391 11.1338 16.7654 10.3081 16.8962 9.26202Z" fill="white" stroke="white"/>
</svg>
