<svg width="143" height="36" viewBox="0 0 143 36" fill="none" xmlns="http://www.w3.org/2000/svg">
<path d="M0.25 35L8.1 1H27.7L26.3 7H13.6L11.25 17.25H21.75L20.3 23.25H9.85L7.15 35H0.25ZM30.5281 9.2L43.2781 2H49.2281L41.6281 35H34.7781L40.5281 10.1L32.3781 14.6L30.5281 9.2ZM80.743 35H63.043L70.893 1H77.793L71.343 29H82.093L80.743 35ZM83.6367 35L89.3867 10H96.0867L90.3367 35H83.6367ZM89.9367 7.4L91.5367 0.549999H98.2867L96.7367 7.4H89.9367ZM99.3449 10H105.895L105.195 29.45H106.095L114.645 10H121.395L109.645 35H99.1449L99.3449 10ZM126.402 27.15C126.402 27.9833 126.736 28.65 127.402 29.15C128.102 29.65 128.969 29.9 130.002 29.9C132.302 29.9 134.652 29.7333 137.052 29.4L138.352 29.25L137.602 34.2C134.502 35.1333 131.436 35.6 128.402 35.6C125.369 35.6 123.152 34.9167 121.752 33.55C120.386 32.1833 119.702 30.1833 119.702 27.55C119.702 24.9167 119.969 22.5667 120.502 20.5C121.036 18.4333 121.819 16.5667 122.852 14.9C123.919 13.2333 125.352 11.9167 127.152 10.95C128.986 9.95 131.069 9.45 133.402 9.45C139.236 9.45 142.152 11.9333 142.152 16.9C142.152 20.0667 141.086 22.25 138.952 23.45C136.819 24.65 133.269 25.25 128.302 25.25H126.552C126.452 25.65 126.402 26.2833 126.402 27.15ZM129.352 20.3C131.652 20.3 133.252 20.05 134.152 19.55C135.086 19.05 135.552 18.2 135.552 17C135.552 15.5667 134.719 14.85 133.052 14.85C130.086 14.85 128.169 16.6667 127.302 20.3H129.352Z" fill="white"/>
</svg>
