<svg width="120" height="61" viewBox="0 0 120 61" fill="none" xmlns="http://www.w3.org/2000/svg">
<mask id="path-1-outside-1_218_138" maskUnits="userSpaceOnUse" x="0" y="0" width="116" height="61" fill="black">
<rect fill="white" width="116" height="61"/>
<path d="M113.534 22.2707H108.853V13.6807C108.853 12.8747 108.549 12.1016 108.006 11.5316C107.464 10.9617 106.728 10.6414 105.961 10.6414H99.0257C98.2898 10.6416 97.5826 10.9416 97.0528 11.4785V6.03095C97.0528 4.96188 96.6487 3.93659 95.9294 3.18064C95.2102 2.42469 94.2346 2 93.2174 2H82.6178C81.6113 2.0169 80.6514 2.44904 79.9453 3.20316C79.2392 3.95729 78.8435 4.97294 78.8436 6.03095V26.0054H37.242V6.03095C37.242 4.96188 36.8379 3.93659 36.1186 3.18064C35.3993 2.42469 34.4237 2 33.4065 2H22.807C21.7897 2 20.8142 2.42469 20.0949 3.18064C19.3756 3.93659 18.9715 4.96188 18.9715 6.03095V11.4399C18.4418 10.903 17.7346 10.6029 16.9987 10.6028H10.063C9.29603 10.6028 8.56046 10.923 8.01813 11.493C7.47579 12.063 7.17111 12.836 7.17111 13.6421V22.232H2.46564C2.4045 22.232 2.34395 22.2447 2.28745 22.2693C2.23096 22.2939 2.17962 22.3299 2.13638 22.3754C2.09315 22.4208 2.05885 22.4748 2.03545 22.5341C2.01204 22.5935 2 22.6572 2 22.7214V38.2271C2 38.3569 2.04906 38.4813 2.13638 38.5731C2.22371 38.6649 2.34215 38.7165 2.46564 38.7165H7.17111V47.3064C7.17111 48.1125 7.47579 48.8855 8.01813 49.4555C8.56046 50.0255 9.29603 50.3457 10.063 50.3457H16.9987C17.7346 50.3455 18.4418 50.0455 18.9715 49.5086V54.969C18.9715 56.0381 19.3756 57.0634 20.0949 57.8194C20.8142 58.5753 21.7897 59 22.807 59H33.4065C34.4237 59 35.3993 58.5753 36.1186 57.8194C36.8379 57.0634 37.242 56.0381 37.242 54.969V34.9946H78.8436V54.969C78.8436 56.0381 79.2477 57.0634 79.967 57.8194C80.6863 58.5753 81.6619 59 82.6791 59H93.2786C94.2852 58.9831 95.2451 58.551 95.9512 57.7968C96.6573 57.0427 97.0529 56.0271 97.0528 54.969V49.5601C97.5826 50.097 98.2898 50.397 99.0257 50.3972H105.961C106.728 50.3972 107.464 50.077 108.006 49.507C108.549 48.937 108.853 48.164 108.853 47.3579V38.7293H113.534C113.658 38.7293 113.776 38.6778 113.863 38.586C113.951 38.4942 114 38.3697 114 38.2399V22.7729C114.001 22.7076 113.991 22.6426 113.968 22.5817C113.945 22.5208 113.911 22.4653 113.868 22.4185C113.824 22.3717 113.773 22.3345 113.715 22.3091C113.658 22.2837 113.596 22.2707 113.534 22.2707ZM7.1466 37.7248H2.87002V23.2366H7.1466V37.7248ZM18.9715 47.2806C18.9683 47.8295 18.7594 48.3549 18.3901 48.743C18.0209 49.1311 17.5209 49.3507 16.9987 49.354H10.063C9.54076 49.3507 9.04082 49.1311 8.67153 48.743C8.30224 48.3549 8.09336 47.8295 8.09014 47.2806V13.6807C8.09336 13.1319 8.30224 12.6065 8.67153 12.2183C9.04082 11.8302 9.54076 11.6107 10.063 11.6073H16.9987C17.5209 11.6107 18.0209 11.8302 18.3901 12.2183C18.7594 12.6065 18.9683 13.1319 18.9715 13.6807V47.2806ZM36.3229 26.4819V54.969C36.3197 55.7809 36.0114 56.5586 35.4652 57.1326C34.9189 57.7067 34.179 58.0307 33.4065 58.0341H22.807C22.0345 58.0307 21.2946 57.7067 20.7483 57.1326C20.2021 56.5586 19.8938 55.7809 19.8906 54.969V6.03095C19.8938 5.21909 20.2021 4.44144 20.7483 3.86737C21.2946 3.29329 22.0345 2.96927 22.807 2.96588H33.4065C34.179 2.96927 34.9189 3.29329 35.4652 3.86737C36.0114 4.44144 36.3197 5.21909 36.3229 6.03095V26.4819ZM78.8436 34.0287H37.242V26.9713H78.8436V34.0287ZM96.1951 13.6807V54.969C96.1918 55.7809 95.8835 56.5586 95.3373 57.1326C94.7911 57.7067 94.0511 58.0307 93.2786 58.0341H82.6178C81.8453 58.0307 81.1054 57.7067 80.5592 57.1326C80.0129 56.5586 79.7046 55.7809 79.7014 54.969V6.03095C79.7046 5.21909 80.0129 4.44144 80.5592 3.86737C81.1054 3.29329 81.8453 2.96927 82.6178 2.96588H93.2174C93.9899 2.96927 94.7298 3.29329 95.276 3.86737C95.8223 4.44144 96.1306 5.21909 96.1338 6.03095L96.1951 13.6807ZM107.934 22.7729V47.3193C107.931 47.8681 107.722 48.3935 107.353 48.7817C106.984 49.1698 106.484 49.3893 105.961 49.3927H99.0257C98.5034 49.3893 98.0035 49.1698 97.6342 48.7817C97.2649 48.3935 97.056 47.8681 97.0528 47.3193V13.6807C97.056 13.1319 97.2649 12.6065 97.6342 12.2183C98.0035 11.8302 98.5034 11.6107 99.0257 11.6073H105.961C106.484 11.6107 106.984 11.8302 107.353 12.2183C107.722 12.6065 107.931 13.1319 107.934 13.6807V22.7729ZM113.081 37.7763H108.853V23.2366H113.081V37.7763Z"/>
</mask>
<path d="M113.534 22.2707H108.853V13.6807C108.853 12.8747 108.549 12.1016 108.006 11.5316C107.464 10.9617 106.728 10.6414 105.961 10.6414H99.0257C98.2898 10.6416 97.5826 10.9416 97.0528 11.4785V6.03095C97.0528 4.96188 96.6487 3.93659 95.9294 3.18064C95.2102 2.42469 94.2346 2 93.2174 2H82.6178C81.6113 2.0169 80.6514 2.44904 79.9453 3.20316C79.2392 3.95729 78.8435 4.97294 78.8436 6.03095V26.0054H37.242V6.03095C37.242 4.96188 36.8379 3.93659 36.1186 3.18064C35.3993 2.42469 34.4237 2 33.4065 2H22.807C21.7897 2 20.8142 2.42469 20.0949 3.18064C19.3756 3.93659 18.9715 4.96188 18.9715 6.03095V11.4399C18.4418 10.903 17.7346 10.6029 16.9987 10.6028H10.063C9.29603 10.6028 8.56046 10.923 8.01813 11.493C7.47579 12.063 7.17111 12.836 7.17111 13.6421V22.232H2.46564C2.4045 22.232 2.34395 22.2447 2.28745 22.2693C2.23096 22.2939 2.17962 22.3299 2.13638 22.3754C2.09315 22.4208 2.05885 22.4748 2.03545 22.5341C2.01204 22.5935 2 22.6572 2 22.7214V38.2271C2 38.3569 2.04906 38.4813 2.13638 38.5731C2.22371 38.6649 2.34215 38.7165 2.46564 38.7165H7.17111V47.3064C7.17111 48.1125 7.47579 48.8855 8.01813 49.4555C8.56046 50.0255 9.29603 50.3457 10.063 50.3457H16.9987C17.7346 50.3455 18.4418 50.0455 18.9715 49.5086V54.969C18.9715 56.0381 19.3756 57.0634 20.0949 57.8194C20.8142 58.5753 21.7897 59 22.807 59H33.4065C34.4237 59 35.3993 58.5753 36.1186 57.8194C36.8379 57.0634 37.242 56.0381 37.242 54.969V34.9946H78.8436V54.969C78.8436 56.0381 79.2477 57.0634 79.967 57.8194C80.6863 58.5753 81.6619 59 82.6791 59H93.2786C94.2852 58.9831 95.2451 58.551 95.9512 57.7968C96.6573 57.0427 97.0529 56.0271 97.0528 54.969V49.5601C97.5826 50.097 98.2898 50.397 99.0257 50.3972H105.961C106.728 50.3972 107.464 50.077 108.006 49.507C108.549 48.937 108.853 48.164 108.853 47.3579V38.7293H113.534C113.658 38.7293 113.776 38.6778 113.863 38.586C113.951 38.4942 114 38.3697 114 38.2399V22.7729C114.001 22.7076 113.991 22.6426 113.968 22.5817C113.945 22.5208 113.911 22.4653 113.868 22.4185C113.824 22.3717 113.773 22.3345 113.715 22.3091C113.658 22.2837 113.596 22.2707 113.534 22.2707ZM7.1466 37.7248H2.87002V23.2366H7.1466V37.7248ZM18.9715 47.2806C18.9683 47.8295 18.7594 48.3549 18.3901 48.743C18.0209 49.1311 17.5209 49.3507 16.9987 49.354H10.063C9.54076 49.3507 9.04082 49.1311 8.67153 48.743C8.30224 48.3549 8.09336 47.8295 8.09014 47.2806V13.6807C8.09336 13.1319 8.30224 12.6065 8.67153 12.2183C9.04082 11.8302 9.54076 11.6107 10.063 11.6073H16.9987C17.5209 11.6107 18.0209 11.8302 18.3901 12.2183C18.7594 12.6065 18.9683 13.1319 18.9715 13.6807V47.2806ZM36.3229 26.4819V54.969C36.3197 55.7809 36.0114 56.5586 35.4652 57.1326C34.9189 57.7067 34.179 58.0307 33.4065 58.0341H22.807C22.0345 58.0307 21.2946 57.7067 20.7483 57.1326C20.2021 56.5586 19.8938 55.7809 19.8906 54.969V6.03095C19.8938 5.21909 20.2021 4.44144 20.7483 3.86737C21.2946 3.29329 22.0345 2.96927 22.807 2.96588H33.4065C34.179 2.96927 34.9189 3.29329 35.4652 3.86737C36.0114 4.44144 36.3197 5.21909 36.3229 6.03095V26.4819ZM78.8436 34.0287H37.242V26.9713H78.8436V34.0287ZM96.1951 13.6807V54.969C96.1918 55.7809 95.8835 56.5586 95.3373 57.1326C94.7911 57.7067 94.0511 58.0307 93.2786 58.0341H82.6178C81.8453 58.0307 81.1054 57.7067 80.5592 57.1326C80.0129 56.5586 79.7046 55.7809 79.7014 54.969V6.03095C79.7046 5.21909 80.0129 4.44144 80.5592 3.86737C81.1054 3.29329 81.8453 2.96927 82.6178 2.96588H93.2174C93.9899 2.96927 94.7298 3.29329 95.276 3.86737C95.8223 4.44144 96.1306 5.21909 96.1338 6.03095L96.1951 13.6807ZM107.934 22.7729V47.3193C107.931 47.8681 107.722 48.3935 107.353 48.7817C106.984 49.1698 106.484 49.3893 105.961 49.3927H99.0257C98.5034 49.3893 98.0035 49.1698 97.6342 48.7817C97.2649 48.3935 97.056 47.8681 97.0528 47.3193V13.6807C97.056 13.1319 97.2649 12.6065 97.6342 12.2183C98.0035 11.8302 98.5034 11.6107 99.0257 11.6073H105.961C106.484 11.6107 106.984 11.8302 107.353 12.2183C107.722 12.6065 107.931 13.1319 107.934 13.6807V22.7729ZM113.081 37.7763H108.853V23.2366H113.081V37.7763Z" fill="white"/>
<path d="M113.534 22.2707H108.853V13.6807C108.853 12.8747 108.549 12.1016 108.006 11.5316C107.464 10.9617 106.728 10.6414 105.961 10.6414H99.0257C98.2898 10.6416 97.5826 10.9416 97.0528 11.4785V6.03095C97.0528 4.96188 96.6487 3.93659 95.9294 3.18064C95.2102 2.42469 94.2346 2 93.2174 2H82.6178C81.6113 2.0169 80.6514 2.44904 79.9453 3.20316C79.2392 3.95729 78.8435 4.97294 78.8436 6.03095V26.0054H37.242V6.03095C37.242 4.96188 36.8379 3.93659 36.1186 3.18064C35.3993 2.42469 34.4237 2 33.4065 2H22.807C21.7897 2 20.8142 2.42469 20.0949 3.18064C19.3756 3.93659 18.9715 4.96188 18.9715 6.03095V11.4399C18.4418 10.903 17.7346 10.6029 16.9987 10.6028H10.063C9.29603 10.6028 8.56046 10.923 8.01813 11.493C7.47579 12.063 7.17111 12.836 7.17111 13.6421V22.232H2.46564C2.4045 22.232 2.34395 22.2447 2.28745 22.2693C2.23096 22.2939 2.17962 22.3299 2.13638 22.3754C2.09315 22.4208 2.05885 22.4748 2.03545 22.5341C2.01204 22.5935 2 22.6572 2 22.7214V38.2271C2 38.3569 2.04906 38.4813 2.13638 38.5731C2.22371 38.6649 2.34215 38.7165 2.46564 38.7165H7.17111V47.3064C7.17111 48.1125 7.47579 48.8855 8.01813 49.4555C8.56046 50.0255 9.29603 50.3457 10.063 50.3457H16.9987C17.7346 50.3455 18.4418 50.0455 18.9715 49.5086V54.969C18.9715 56.0381 19.3756 57.0634 20.0949 57.8194C20.8142 58.5753 21.7897 59 22.807 59H33.4065C34.4237 59 35.3993 58.5753 36.1186 57.8194C36.8379 57.0634 37.242 56.0381 37.242 54.969V34.9946H78.8436V54.969C78.8436 56.0381 79.2477 57.0634 79.967 57.8194C80.6863 58.5753 81.6619 59 82.6791 59H93.2786C94.2852 58.9831 95.2451 58.551 95.9512 57.7968C96.6573 57.0427 97.0529 56.0271 97.0528 54.969V49.5601C97.5826 50.097 98.2898 50.397 99.0257 50.3972H105.961C106.728 50.3972 107.464 50.077 108.006 49.507C108.549 48.937 108.853 48.164 108.853 47.3579V38.7293H113.534C113.658 38.7293 113.776 38.6778 113.863 38.586C113.951 38.4942 114 38.3697 114 38.2399V22.7729C114.001 22.7076 113.991 22.6426 113.968 22.5817C113.945 22.5208 113.911 22.4653 113.868 22.4185C113.824 22.3717 113.773 22.3345 113.715 22.3091C113.658 22.2837 113.596 22.2707 113.534 22.2707ZM7.1466 37.7248H2.87002V23.2366H7.1466V37.7248ZM18.9715 47.2806C18.9683 47.8295 18.7594 48.3549 18.3901 48.743C18.0209 49.1311 17.5209 49.3507 16.9987 49.354H10.063C9.54076 49.3507 9.04082 49.1311 8.67153 48.743C8.30224 48.3549 8.09336 47.8295 8.09014 47.2806V13.6807C8.09336 13.1319 8.30224 12.6065 8.67153 12.2183C9.04082 11.8302 9.54076 11.6107 10.063 11.6073H16.9987C17.5209 11.6107 18.0209 11.8302 18.3901 12.2183C18.7594 12.6065 18.9683 13.1319 18.9715 13.6807V47.2806ZM36.3229 26.4819V54.969C36.3197 55.7809 36.0114 56.5586 35.4652 57.1326C34.9189 57.7067 34.179 58.0307 33.4065 58.0341H22.807C22.0345 58.0307 21.2946 57.7067 20.7483 57.1326C20.2021 56.5586 19.8938 55.7809 19.8906 54.969V6.03095C19.8938 5.21909 20.2021 4.44144 20.7483 3.86737C21.2946 3.29329 22.0345 2.96927 22.807 2.96588H33.4065C34.179 2.96927 34.9189 3.29329 35.4652 3.86737C36.0114 4.44144 36.3197 5.21909 36.3229 6.03095V26.4819ZM78.8436 34.0287H37.242V26.9713H78.8436V34.0287ZM96.1951 13.6807V54.969C96.1918 55.7809 95.8835 56.5586 95.3373 57.1326C94.7911 57.7067 94.0511 58.0307 93.2786 58.0341H82.6178C81.8453 58.0307 81.1054 57.7067 80.5592 57.1326C80.0129 56.5586 79.7046 55.7809 79.7014 54.969V6.03095C79.7046 5.21909 80.0129 4.44144 80.5592 3.86737C81.1054 3.29329 81.8453 2.96927 82.6178 2.96588H93.2174C93.9899 2.96927 94.7298 3.29329 95.276 3.86737C95.8223 4.44144 96.1306 5.21909 96.1338 6.03095L96.1951 13.6807ZM107.934 22.7729V47.3193C107.931 47.8681 107.722 48.3935 107.353 48.7817C106.984 49.1698 106.484 49.3893 105.961 49.3927H99.0257C98.5034 49.3893 98.0035 49.1698 97.6342 48.7817C97.2649 48.3935 97.056 47.8681 97.0528 47.3193V13.6807C97.056 13.1319 97.2649 12.6065 97.6342 12.2183C98.0035 11.8302 98.5034 11.6107 99.0257 11.6073H105.961C106.484 11.6107 106.984 11.8302 107.353 12.2183C107.722 12.6065 107.931 13.1319 107.934 13.6807V22.7729ZM113.081 37.7763H108.853V23.2366H113.081V37.7763Z" stroke="white" stroke-width="4" mask="url(#path-1-outside-1_218_138)"/>
</svg>
