<svg width="195" height="50" viewBox="0 0 195 50" fill="none" xmlns="http://www.w3.org/2000/svg">
<path d="M42.9695 21.4286C35.7074 21.4286 29.7494 27.8672 29.7494 35.7143C29.7494 43.5622 35.7074 50 42.9695 50C50.2317 50 56.1897 43.5622 56.1897 35.7143C56.1897 27.8672 50.2317 21.4286 42.9695 21.4286ZM42.9695 28.5714C46.6593 28.5714 49.5796 31.7272 49.5796 35.7143C49.5796 39.7014 46.6593 42.8572 42.9695 42.8572C39.2797 42.8572 36.3595 39.7014 36.3595 35.7143C36.3595 31.7272 39.2797 28.5714 42.9695 28.5714Z" fill="white"/>
<path d="M158.646 21.4286C151.383 21.4286 145.425 27.8672 145.425 35.7143C145.425 43.5622 151.383 50 158.646 50C165.908 50 171.866 43.5622 171.866 35.7143C171.866 27.8672 165.908 21.4286 158.646 21.4286ZM158.646 28.5714C162.335 28.5714 165.256 31.7272 165.256 35.7143C165.256 39.7014 162.335 42.8572 158.646 42.8572C154.956 42.8572 152.035 39.7014 152.035 35.7143C152.035 31.7272 154.956 28.5714 158.646 28.5714Z" fill="white"/>
<path fill-rule="evenodd" clip-rule="evenodd" d="M112.246 3.57148C111.37 3.57158 110.529 3.94805 109.909 4.6178C109.29 5.28755 108.941 6.19574 108.941 7.14291V17.8572H90.2213L83.4047 11.5793C82.9769 11.1849 82.4631 10.9145 81.9119 10.7946C81.3607 10.6746 80.7902 10.7084 80.2545 10.8931L59.5593 18.0359L61.5733 24.8309L80.5128 18.301L86.8646 24.1473C87.4628 24.6969 88.2225 24.9979 89.0077 24.9974H112.246C113.123 24.9973 113.963 24.6217 114.583 23.952C115.203 23.2822 115.551 22.3732 115.551 21.426V10.7117H142.482L155.896 17.5206L158.71 11.0614L144.625 3.91851C144.186 3.6912 143.705 3.57116 143.218 3.56799L112.246 3.57148Z" fill="white"/>
<path fill-rule="evenodd" clip-rule="evenodd" d="M59.4945 32.1428V39.2857H64.7361L70.3779 45.3822C70.9976 46.052 71.8381 46.4283 72.7147 46.4285H138.815V39.2857H74.0831L68.4413 33.1891C67.8216 32.5193 66.9811 32.143 66.1046 32.1428H59.4945Z" fill="white"/>
<path fill-rule="evenodd" clip-rule="evenodd" d="M171.866 0C170.99 0.000211171 170.149 0.376503 169.529 1.04632L162.919 8.18917C162.299 8.85883 161.951 9.76719 161.951 10.7143V17.8571H168.561V12.1931L173.235 7.14286H183.718L182.749 8.18917C182.13 8.85883 181.781 9.76719 181.781 10.7143V35.7143H178.476V42.8571H185.086C185.963 42.857 186.803 42.4806 187.423 41.8108C188.043 41.1411 188.391 40.2329 188.391 39.2857V12.1931L194.033 6.09654C194.495 5.597 194.809 4.96074 194.937 4.2681C195.064 3.57546 194.999 2.85755 194.749 2.20511C194.499 1.55268 194.075 0.994968 193.532 0.602504C192.989 0.21004 192.35 0.000298433 191.696 0H171.866Z" fill="white"/>
<path fill-rule="evenodd" clip-rule="evenodd" d="M24.5464 25.0139L2.35356 32.2265C1.83042 32.3965 1.35442 32.7037 0.968134 33.1211C0.58185 33.5385 0.297329 34.0529 0.140016 34.6182C-0.0172969 35.1835 -0.0424951 35.7819 0.0666744 36.3604C0.175844 36.9388 0.415977 37.4789 0.765597 37.9324L6.31703 45.1451C6.62781 45.5476 7.01679 45.871 7.45634 46.0928C7.89588 46.3147 8.37523 46.4294 8.86036 46.4285H25.4888V39.2857H10.4096L9.0411 37.5139L26.4442 31.8499L24.5464 25.0139Z" fill="white"/>
</svg>
