<svg width="89" height="68" viewBox="0 0 89 68" fill="none" xmlns="http://www.w3.org/2000/svg">
<path fill-rule="evenodd" clip-rule="evenodd" d="M67.0673 9.53308C70.7363 9.53308 73.7283 12.5251 73.7283 16.1941C73.7283 19.8631 70.7363 22.8561 67.0673 22.8561C63.3983 22.8561 60.4053 19.8641 60.4053 16.1941C60.4053 12.5261 63.3973 9.53308 67.0673 9.53308Z" fill="white"/>
<path fill-rule="evenodd" clip-rule="evenodd" d="M71.6992 40.0211L82.5202 33.7201C84.2732 32.6761 86.5862 33.2961 87.6242 35.0941C88.6622 36.8921 88.0422 39.2051 86.4092 40.1291L75.4172 46.4361C74.7012 46.8471 73.0972 47.5471 71.2782 47.5471C67.6472 47.5471 65.0062 45.4851 63.3142 42.4921L59.8672 36.3941C59.6672 36.0401 59.3302 35.7341 58.8842 35.7341L38.5622 35.7531C38.0952 35.7531 37.6022 36.1961 37.6302 36.7661C37.6392 36.9611 37.7552 37.0851 37.8262 37.2061L42.0142 44.2491C42.6312 45.2881 42.9912 46.6451 42.9912 48.0581C42.9912 52.5801 39.1932 56.4601 34.9342 56.4431L21.7842 56.3891C19.9082 56.4051 18.2152 54.7121 18.2152 52.6361C18.2152 50.5601 19.9082 48.8671 21.9482 48.8941L34.4182 48.9191C34.8632 48.9201 35.3282 48.4521 35.3282 47.8821C35.3282 47.6331 35.2112 47.4271 35.1532 47.3291L31.1452 40.5901C30.4712 39.4571 30.0562 38.1121 30.0562 36.6571C30.0562 32.0001 33.8542 28.2641 38.3412 28.2641H58.8402C61.7522 28.2641 64.4152 29.8021 65.8632 32.1791L70.2802 39.4281C70.5102 39.8061 70.8292 40.1291 71.2792 40.1291C71.4582 40.1271 71.6172 40.0691 71.6992 40.0211Z" fill="white"/>
<path fill-rule="evenodd" clip-rule="evenodd" d="M43.7952 8.05811L48.3562 15.6131C48.4492 15.7681 48.5322 15.9551 48.5322 16.1691C48.5322 16.7391 48.0672 17.1941 47.5682 17.1931L30.7842 17.1461C27.4692 17.1371 24.8932 19.6761 23.3022 22.4201L0.444246 61.8491C-0.507754 63.4661 0.111246 65.7791 1.90925 66.8161C3.70725 67.8541 6.02025 67.2341 7.01625 65.4541L30.1252 25.3501C30.3272 24.9991 30.6292 24.6431 31.0862 24.6431L47.6882 24.6511C52.2852 24.6531 56.0832 20.8701 56.0832 16.2131C56.0832 14.3211 55.3262 12.6571 54.4392 11.1701L50.1642 4.01111C48.7102 1.57611 45.9442 0.00211138 42.7432 0.00211138L29.0492 0.000112483C27.1732 -0.0158875 25.4802 1.67711 25.4802 3.75311C25.4802 5.82911 27.1732 7.52211 29.2132 7.49511L42.8862 7.47311C43.2592 7.47211 43.6022 7.73911 43.7952 8.05811Z" fill="white"/>
</svg>
